<?xml version="1.0" encoding="UTF-8" standalone="no"?>
<!-- Created with Inkscape (http://www.inkscape.org/) -->

<svg
   xmlns:dc="http://purl.org/dc/elements/1.1/"
   xmlns:cc="http://creativecommons.org/ns#"
   xmlns:rdf="http://www.w3.org/1999/02/22-rdf-syntax-ns#"
   xmlns:svg="http://www.w3.org/2000/svg"
   xmlns="http://www.w3.org/2000/svg"
   xmlns:sodipodi="http://sodipodi.sourceforge.net/DTD/sodipodi-0.dtd"
   xmlns:inkscape="http://www.inkscape.org/namespaces/inkscape"
   width="210mm"
   height="297mm"
   viewBox="0 0 744.09448819 1052.3622047"
   id="svg2"
   version="1.1"
   inkscape:version="0.91 r13725"
   sodipodi:docname="petal_pos.svg">
  <defs
     id="defs4">
    <style
       id="style4672"
       type="text/css">
*{stroke-linecap:butt;stroke-linejoin:round;}
  </style>
    <style
       id="style5017"
       type="text/css">
*{stroke-linecap:butt;stroke-linejoin:round;}
  </style>
    <style
       id="style5426"
       type="text/css">
*{stroke-linecap:butt;stroke-linejoin:round;}
  </style>
    <style
       id="style4301"
       type="text/css">
*{stroke-linecap:butt;stroke-linejoin:round;}
  </style>
    <style
       id="style4692"
       type="text/css">
*{stroke-linecap:butt;stroke-linejoin:round;}
  </style>
    <style
       id="style4958"
       type="text/css">
*{stroke-linecap:butt;stroke-linejoin:round;}
  </style>
  </defs>
  <sodipodi:namedview
     id="base"
     pagecolor="#ffffff"
     bordercolor="#666666"
     borderopacity="1.0"
     inkscape:pageopacity="0.0"
     inkscape:pageshadow="2"
     inkscape:zoom="0.76940526"
     inkscape:cx="9.3166225"
     inkscape:cy="-328.62087"
     inkscape:document-units="px"
     inkscape:current-layer="layer1"
     showgrid="false"
     inkscape:window-width="1855"
     inkscape:window-height="1176"
     inkscape:window-x="65"
     inkscape:window-y="24"
     inkscape:window-maximized="1" />
  <metadata
     id="metadata7">
    <rdf:RDF>
      <cc:Work
         rdf:about="">
        <dc:format>image/svg+xml</dc:format>
        <dc:type
           rdf:resource="http://purl.org/dc/dcmitype/StillImage" />
        <dc:title></dc:title>
      </cc:Work>
    </rdf:RDF>
  </metadata>
  <g
     inkscape:label="Layer 1"
     inkscape:groupmode="layer"
     id="layer1">
    <g
       id="patch_12"
       style="stroke-linecap:butt;stroke-linejoin:round"
       transform="matrix(1.2096333,0,0,1.6231517,-285.667,769.07676)">
      <path
         id="path4996"
         style="opacity:0.5;fill:#00bfbf;stroke:#00bfbf;stroke-linecap:butt;stroke-linejoin:miter"
         d="m 0.0,0.0 m 58.07559,-11.59569 c -7.41055,-8.421 -8.75736,18.44894 35.34125,-3.69267 q -23.69801,4.1305 -11.75031,-1.10685 c -20.1936,-10.26455 24.00405,5.46812 -6.32455,-8.63668 q -25.00262,-6.03923 -21.79768,-3.16087 6.46218,22.21784 39.98522,46.14545 -69.03252,-17.87888 -18.09682,-17.1393 -10.47608,-8.97581 28.15465,-53.50582 -37.82484,21.03403 -26.90482,16.83104 27.27017,3.7039 16.21915,41.1617 c -8.80096,-43.25149 -31.43058,-50.57384 22.44412,-46.88435 -60.29383,0.48995 -52.31533,29.76676 -50.30709,4.04513 q 22.67274,8.20718 18.49799,-7.83382 -18.70383,20.46989 -23.79093,13.40222 c 25.56604,64.49244 97.8261,43.73825 36.9502,70.67214 -25.54436,-88.86166 -38.10361,-19.53332 23.05335,-28.03831 -4.99697,-12.39801 4.79075,-38.4088 -17.22505,-48.31177 q 113.59852,56.77362 -0.79754,58.82417 c 37.64029,-17.66036 121.67096,-44.61087 -1.7973,16.02214 q -52.11808,-31.82748 -41.85384,-48.79355 l 31.88572,-2.12215 z"
         clip-path="url(#p5c279dd5b6)"
         inkscape:connector-curvature="0" />
    </g>
  </g>
</svg>
