<?xml version="1.0" encoding="UTF-8" standalone="no"?>
<svg
   xmlns:dc="http://purl.org/dc/elements/1.1/"
   xmlns:cc="http://creativecommons.org/ns#"
   xmlns:rdf="http://www.w3.org/1999/02/22-rdf-syntax-ns#"
   xmlns:svg="http://www.w3.org/2000/svg"
   xmlns="http://www.w3.org/2000/svg"
   xmlns:sodipodi="http://sodipodi.sourceforge.net/DTD/sodipodi-0.dtd"
   xmlns:inkscape="http://www.inkscape.org/namespaces/inkscape"
   sodipodi:docname="mandala_arousal_petal.svg"
   inkscape:version="1.0beta2 (2b71d25, 2019-12-03)"
   id="svg16"
   version="1.1"
   viewBox="0 0 210 297"
   height="297mm"
   width="210mm">
  <defs
     id="defs10" />
  <sodipodi:namedview
     inkscape:window-maximized="0"
     inkscape:window-y="23"
     inkscape:window-x="0"
     inkscape:window-height="820"
     inkscape:window-width="1440"
     showgrid="false"
     inkscape:document-rotation="0"
     inkscape:current-layer="layer2"
     inkscape:document-units="mm"
     inkscape:cy="99.657745"
     inkscape:cx="68.894481"
     inkscape:zoom="0.65153519"
     inkscape:pageshadow="2"
     inkscape:pageopacity="0.0"
     borderopacity="1.0"
     bordercolor="#666666"
     pagecolor="#ffffff"
     id="base" />
  <metadata
     id="metadata13">
    <rdf:RDF>
      <cc:Work
         rdf:about="">
        <dc:format>image/svg+xml</dc:format>
        <dc:type
           rdf:resource="http://purl.org/dc/dcmitype/StillImage" />
        <dc:title />
      </cc:Work>
    </rdf:RDF>
  </metadata>
  <g
     id="layer1"
     inkscape:groupmode="layer"
     inkscape:label="Layer 1" />
  <g
     inkscape:label="Petal1"
     id="layer2"
     inkscape:groupmode="layer">
    <g
       transform="matrix(-0.99466954,0.10311401,0.10311401,0.99466954,-13.735327,58.713953)"
       id="petal1">
      <path
         style="fill:#a0a0a0;stroke:none;stroke-width:1.53484"
         d="m 0,0 c -0.004,-1.50698 21.465342,-76.480291 -3.82959,-58.7615 -44.723922,31.328562 -45.957028,-26.537446 -30.67634,-50.96789 -0.005,-2.72145 16.19968,-26.76602 -8.33323,-58.83754 -19.34485,-25.28926 -34.95504,-46.19829 -34.6893,-46.46451 0.88282,-0.88439 27.41815,10.62537 43.83903,19.01528 24.1275,12.32745 72.760768,27.42509 57.36909,39.7384 -58.18559,46.54837 39.26368,85.657905 39.33535,108.853185 0.0851,27.54923 -21.26628,7.945305 -47.65427,36.663555 C 4.38766,1.18107 0.01162,4.24672 0,0 Z"
         id="path853"
         inkscape:connector-curvature="0"
         transform="scale(0.26458333)"
         sodipodi:nodetypes="cscscssssc" />
    </g>
  </g>
</svg>
