<svg id="Logo" xmlns="http://www.w3.org/2000/svg" viewBox="0 0 258.58 110.91"><defs><style>.cls-1{fill:#211a47;}</style></defs><title>N of 1_logo</title><path class="cls-1" d="M271,83.68V58.54c0-1.28.06-12.78-7.41-20.52-4.4-4.55-10.33-6.85-17.67-6.85l-13.23,0H213.25a4.55,4.55,0,0,0-4.54,4.55v28H188.63a8.1,8.1,0,0,0-8.1,8.1v8.43a13.67,13.67,0,0,1-5.69-1.69,10.18,10.18,0,0,1-3.42-2.83c-3.6-3.89-6.37-9.28-17.21-12.1-18-4.69-31.77,6-31.77,6V39.31a8.1,8.1,0,0,0-8.1-8.1H88.05a8.11,8.11,0,0,0-8.1,8.1V70.43c-6.28-9.26-13.7-20.22-17.86-26.51h0C52.66,29.63,39.23,29.53,37.43,29.59c-7.29,0-13.2,2.32-17.57,6.85C12.38,44.18,12.42,55.69,12.44,57v56.73a5.27,5.27,0,0,0,.09.89v16.21a8.11,8.11,0,0,0,8.1,8.1H46.92a8.1,8.1,0,0,0,8.1-8.1V100l17.22,25.77c8.38,13.67,20.73,14.77,24.51,14.77l.86,0c7.26,0,13.14-2.33,17.5-6.85,7.48-7.74,7.45-19.24,7.42-20.52V88a4.41,4.41,0,0,0-.09-.89V83.78a22.12,22.12,0,0,1,11.33-10.27,21.25,21.25,0,1,0,38.92,14.16,27.54,27.54,0,0,0,7.84,1.81V102.1a4.55,4.55,0,1,0,9.09,0V89.6H203a4.55,4.55,0,1,0,0-9.1H189.62V72.89h38.91v57.82a8.11,8.11,0,0,0,8.1,8.1h26.29a8.1,8.1,0,0,0,8.1-8.1V84.8a3.64,3.64,0,0,0,0-.57A3.31,3.31,0,0,0,271,83.68Zm-182-43.37h24.3V80a12.15,12.15,0,1,1-24.3,0ZM45.93,129.8H21.63v-28a4.43,4.43,0,0,0-.09-.9V89.6a3.91,3.91,0,0,0,.14-.76A12.15,12.15,0,0,1,45.93,90Zm62.61-2.46c-2.65,2.72-6.27,4-11.08,4h-.4c-.11,0-10.23.78-17.11-10.49a1.3,1.3,0,0,0-.1-.15L51.44,78.21a1.56,1.56,0,0,0-.16-.2,21.29,21.29,0,0,0-29.74-5.39V56.75c0-.09-.16-8.79,4.86-14,2.65-2.74,6.28-4.07,11.11-4.07h.22c.39,0,9.85-.25,16.77,10.24h0c6.3,9.53,20,29.66,26.07,38.57a3.67,3.67,0,0,0,.38.56l2.61,3.83.1.12a21.21,21.21,0,0,0,29.69,5.45V104a4.41,4.41,0,0,0,.09.89v8.45C113.44,113.38,113.61,122.12,108.54,127.34ZM151.6,97.21a12.16,12.16,0,1,1,12.16-12.16A12.17,12.17,0,0,1,151.6,97.21ZM261.93,84.8v44.92h-24.3V71.9a8.1,8.1,0,0,0-8.1-8.1H217.8V40.31h14.92l13.23,0c4.81,0,8.43,1.32,11.08,4,5.08,5.22,4.9,14,4.9,14V83.68a5.44,5.44,0,0,0,0,.57A4.93,4.93,0,0,0,261.93,84.8Z" transform="translate(-12.44 -29.59)"/></svg>