<?xml version="1.0" encoding="UTF-8" standalone="no"?>
<!-- Created with Inkscape (http://www.inkscape.org/) -->

<svg
   xmlns:dc="http://purl.org/dc/elements/1.1/"
   xmlns:cc="http://creativecommons.org/ns#"
   xmlns:rdf="http://www.w3.org/1999/02/22-rdf-syntax-ns#"
   xmlns:svg="http://www.w3.org/2000/svg"
   xmlns="http://www.w3.org/2000/svg"
   xmlns:sodipodi="http://sodipodi.sourceforge.net/DTD/sodipodi-0.dtd"
   xmlns:inkscape="http://www.inkscape.org/namespaces/inkscape"
   width="210mm"
   height="297mm"
   viewBox="0 0 744.09448819 1052.3622047"
   id="svg8318"
   version="1.1"
   inkscape:version="0.91 r13725"
   sodipodi:docname="mandala_neutr1.svg">
  <defs
     id="defs8320" />
  <sodipodi:namedview
     id="base"
     pagecolor="#ffffff"
     bordercolor="#666666"
     borderopacity="1.0"
     inkscape:pageopacity="0.0"
     inkscape:pageshadow="2"
     inkscape:zoom="1.4"
     inkscape:cx="257.07895"
     inkscape:cy="547.76396"
     inkscape:document-units="px"
     inkscape:current-layer="layer1"
     showgrid="false"
     inkscape:window-width="1855"
     inkscape:window-height="1176"
     inkscape:window-x="65"
     inkscape:window-y="24"
     inkscape:window-maximized="1" />
  <metadata
     id="metadata8323">
    <rdf:RDF>
      <cc:Work
         rdf:about="">
        <dc:format>image/svg+xml</dc:format>
        <dc:type
           rdf:resource="http://purl.org/dc/dcmitype/StillImage" />
        <dc:title></dc:title>
      </cc:Work>
    </rdf:RDF>
  </metadata>
  <g
     inkscape:label="Layer 1"
     inkscape:groupmode="layer"
     id="layer1">
    <path
       inkscape:connector-curvature="0"
       clip-path="url(#pe517438b37)"
       d="m 405.48962,466.229 0,0 c -14.57914,54.12979 -1.83242,-8.61418 -2.4776,-4.93984 q -5.26825,15.03239 -6.95917,6.91387 c 28.99722,-47.50145 8.97853,-2.51814 45.44354,-29.20031 -22.94442,0.61269 -38.58729,33.38712 -37.84841,20.23944 q 21.17398,12.0696 3.7195,17.6559 c -32.18975,-11.83918 9.5326,23.13167 1.55335,-64.84306 q 19.57755,22.55759 54.38191,17.67301 -81.37967,1.28654 -53.91826,-6.7811 c -7.79365,7.48584 -43.0567,-51.66843 31.94015,-40.91066 q -11.20124,75.54632 22.08699,9.0284 -32.04229,51.1175 -91.48412,-11.18168 c 36.23443,27.02417 40.75704,37.47961 53.26126,19.50442 q 9.04612,0.37334 97.58483,-13.57839 c -64.08086,185.10199 -68.97556,178.02098 -25.56387,3.36564 -2.74823,-25.02334 40.2177,136.00046 -34.68344,-2.96021 -63.10396,76.50465 33.98258,67.12487 -108.40712,153.47937 q 255.86182,-22.09386 82.19526,-82.38373 c -48.48231,142.87935 76.10659,-93.36543 5.99824,-17.04109 z m 0,0 0,0"
       style="opacity:0.5;fill:#00bfbf;stroke:#00bfbf;stroke-width:1.63118434;stroke-linecap:butt;stroke-linejoin:miter"
       id="path126621-4-8" />
  </g>
</svg>
