<?xml version="1.0" encoding="UTF-8" standalone="no"?>
<!-- Created with Inkscape (http://www.inkscape.org/) -->

<svg
   xmlns:dc="http://purl.org/dc/elements/1.1/"
   xmlns:cc="http://creativecommons.org/ns#"
   xmlns:rdf="http://www.w3.org/1999/02/22-rdf-syntax-ns#"
   xmlns:svg="http://www.w3.org/2000/svg"
   xmlns="http://www.w3.org/2000/svg"
   xmlns:sodipodi="http://sodipodi.sourceforge.net/DTD/sodipodi-0.dtd"
   xmlns:inkscape="http://www.inkscape.org/namespaces/inkscape"
   width="210mm"
   height="297mm"
   viewBox="0 0 744.09448819 1052.3622047"
   id="svg8318"
   version="1.1"
   inkscape:version="0.91 r13725"
   sodipodi:docname="mandala_pos1.svg">
  <defs
     id="defs8320" />
  <sodipodi:namedview
     id="base"
     pagecolor="#ffffff"
     bordercolor="#666666"
     borderopacity="1.0"
     inkscape:pageopacity="0.0"
     inkscape:pageshadow="2"
     inkscape:zoom="0.98994949"
     inkscape:cx="36.360966"
     inkscape:cy="786.62137"
     inkscape:document-units="px"
     inkscape:current-layer="layer1"
     showgrid="false"
     inkscape:window-width="1855"
     inkscape:window-height="1176"
     inkscape:window-x="65"
     inkscape:window-y="24"
     inkscape:window-maximized="1" />
  <metadata
     id="metadata8323">
    <rdf:RDF>
      <cc:Work
         rdf:about="">
        <dc:format>image/svg+xml</dc:format>
        <dc:type
           rdf:resource="http://purl.org/dc/dcmitype/StillImage" />
        <dc:title></dc:title>
      </cc:Work>
    </rdf:RDF>
  </metadata>
  <g
     inkscape:label="Layer 1"
     inkscape:groupmode="layer"
     id="layer1">
    <path
       inkscape:connector-curvature="0"
       clip-path="url(#pc815cb0632)"
       d="m 427.98611,470.1394 0,0 c 13.9383,13.4177 -26.3584,-6.3984 7.6572,-18.3089 q -30.5021,43.6362 -25.1304,25.6746 c 49.379,-5.0106 -3.6811,-13.5285 32.3283,7.3059 -35.2425,-34.3927 -9.5042,-4.7102 26.111,-11.1041 q -42.118,36.4056 -11.644,-9.5759 c -32.0304,12.8835 -51.5146,27.7953 -50.4812,-41.7928 q 2.3408,25.8207 35.0601,14.351 0.666,-30.1759 -44.7625,7.6134 c 69.1773,-31.3983 64.2629,1.2342 64.2741,15.5387 q -25.5033,-9.66 -9.3357,-88.5724 3.3228,30.3904 -2.0412,36.2757 c -13.9331,-1.9925 -26.9807,0.1109 -35.9262,11.7636 q 104.9941,122.7448 181.7207,55.2859 c -177.0798,-145.4586 -115.8348,33.3127 -200.8064,35.2598 -34.9815,-102.7093 -5.7914,-6.986 145.0399,-56.74 -22.7716,12.6856 -96.5497,79.9334 -109.5424,44.746 q 25.9155,-89.2925 19.6665,-107.879 c -38.3044,5.9347 1.9764,116.9069 12.2718,55.8917 z m 0,0 0,0"
       style="opacity:0.5;fill:#00bfbf;stroke:#00bfbf;stroke-width:1.5256412;stroke-linecap:butt;stroke-linejoin:miter"
       id="path129013-0-5" />
  </g>
</svg>
