<?xml version="1.0" encoding="UTF-8" standalone="no"?>
<!-- Created with Inkscape (http://www.inkscape.org/) -->

<svg
   xmlns:dc="http://purl.org/dc/elements/1.1/"
   xmlns:cc="http://creativecommons.org/ns#"
   xmlns:rdf="http://www.w3.org/1999/02/22-rdf-syntax-ns#"
   xmlns:svg="http://www.w3.org/2000/svg"
   xmlns="http://www.w3.org/2000/svg"
   xmlns:sodipodi="http://sodipodi.sourceforge.net/DTD/sodipodi-0.dtd"
   xmlns:inkscape="http://www.inkscape.org/namespaces/inkscape"
   width="210mm"
   height="297mm"
   viewBox="0 0 744.09448819 1052.3622047"
   id="svg8318"
   version="1.1"
   inkscape:version="0.91 r13725"
   sodipodi:docname="mandala_neg1.svg">
  <defs
     id="defs8320" />
  <sodipodi:namedview
     id="base"
     pagecolor="#ffffff"
     bordercolor="#666666"
     borderopacity="1.0"
     inkscape:pageopacity="0.0"
     inkscape:pageshadow="2"
     inkscape:zoom="0.7"
     inkscape:cx="348.00829"
     inkscape:cy="328.1278"
     inkscape:document-units="px"
     inkscape:current-layer="layer1"
     showgrid="false"
     inkscape:window-width="1855"
     inkscape:window-height="1176"
     inkscape:window-x="65"
     inkscape:window-y="24"
     inkscape:window-maximized="1" />
  <metadata
     id="metadata8323">
    <rdf:RDF>
      <cc:Work
         rdf:about="">
        <dc:format>image/svg+xml</dc:format>
        <dc:type
           rdf:resource="http://purl.org/dc/dcmitype/StillImage" />
        <dc:title></dc:title>
      </cc:Work>
    </rdf:RDF>
  </metadata>
  <g
     inkscape:label="Layer 1"
     inkscape:groupmode="layer"
     id="layer1">
    <path
       inkscape:connector-curvature="0"
       clip-path="url(#pa26a68b713)"
       d="m 444.63917,506.734 0,0 c 14.17138,-35.1275 3.98467,-29.0381 -19.54522,16.8731 q -8.38593,6.0546 20.53529,4.0234 c 44.50422,-35.6894 32.5962,-40.3535 -22.57166,-40.1788 -17.99249,20.146 46.54171,15.6485 37.50906,6.3227 q -11.79506,-19.7435 -21.52048,49.9687 c 18.31405,-3.7038 18.59009,-28.6023 58.43214,-54.0909 q -6.45128,12.6803 -6.83899,-63.0321 -3.8353,38.0902 -18.47801,19.3305 c -10.35508,31.3593 54.42652,27.5932 -10.17697,53.6103 q -2.71088,-22.4037 6.68016,-3.4571 29.25539,-41.4834 18.88822,-65.5205 c 21.39653,39.8803 24.3953,17.1575 10.83385,50.3563 q -73.07045,21.9763 -20.754,99.5844 c 50.23028,3.1482 -66.81434,-108.2929 2.76539,-0.7946 55.13784,-93.6985 76.38246,-28.0744 -12.33818,-14.5067 125.25086,0.034 -70.78846,-29.3924 174.93838,-130.7497 Q 476.75531,525.9625 551.42003,566.7825 C 519.91051,533.6956 410.036,539.2172 484.4949,503.175 Z m 0,0 0,0"
       style="opacity:0.5;fill:#00bfbf;stroke:#00bfbf;stroke-width:1.44785881;stroke-linecap:butt;stroke-linejoin:miter"
       id="path131402-2-9" />
  </g>
</svg>
